<?xml version="1.0" encoding="iso-8859-1"?>
<!-- Generator: Adobe Illustrator 21.0.0, SVG Export Plug-In . SVG Version: 6.00 Build 0)  -->
<svg version="1.1" id="&#x5716;&#x5C64;_1" xmlns="http://www.w3.org/2000/svg" xmlns:xlink="http://www.w3.org/1999/xlink" x="0px"
	 y="0px" viewBox="0 0 884 400" style="enable-background:new 0 0 884 400;" xml:space="preserve">
<g>
	<path style="fill:#284B63;" d="M81.035,173.113H54.306c-13.281,0-23.538-3.53-30.764-10.591
		c-7.23-7.061-10.843-17.23-10.843-30.512V52.075c0-13.278,3.613-23.451,10.843-30.512c7.226-7.061,17.483-10.591,30.764-10.591
		h26.729c13.113,0,23.282,3.573,30.511,10.717c7.226,7.147,10.845,17.273,10.845,30.385v7.565c0,3.7-1.766,5.548-5.297,5.548H95.662
		c-3.532,0-5.297-1.848-5.297-5.548v-6.052c0-5.378-1.095-9.204-3.278-11.473c-2.186-2.27-5.97-3.404-11.347-3.404H59.35
		c-5.213,0-8.952,1.134-11.222,3.404c-2.27,2.269-3.404,6.095-3.404,11.473v76.909c0,5.382,1.134,9.204,3.404,11.474
		c2.27,2.269,6.009,3.404,11.222,3.404h16.39c5.378,0,9.161-1.135,11.347-3.404c2.183-2.269,3.278-6.092,3.278-11.474v-15.886
		c0-1.848-0.926-2.774-2.772-2.774H72.462c-3.531,0-5.295-1.765-5.295-5.295V89.395c0-3.53,1.765-5.295,5.295-5.295h44.128
		c3.866,0,5.801,1.934,5.801,5.8v42.111c0,13.113-3.619,23.242-10.845,30.385C104.317,169.543,94.148,173.113,81.035,173.113z"/>
	<path style="fill:#284B63;" d="M219.976,173.113h-28.242c-13.281,0-23.538-3.53-30.764-10.591
		c-7.229-7.061-10.842-17.23-10.842-30.512V52.075c0-13.278,3.613-23.451,10.842-30.512c7.226-7.061,17.483-10.591,30.764-10.591
		h28.242c13.279,0,23.535,3.53,30.764,10.591c7.226,7.061,10.843,17.234,10.843,30.512v79.935c0,13.282-3.617,23.451-10.843,30.512
		C243.511,169.583,233.255,173.113,219.976,173.113z M196.777,145.375h17.905c5.378,0,9.203-1.135,11.473-3.404
		c2.269-2.269,3.404-6.092,3.404-11.474V53.588c0-5.378-1.135-9.204-3.404-11.473c-2.27-2.27-6.095-3.404-11.473-3.404h-17.905
		c-5.382,0-9.165,1.134-11.347,3.404c-2.188,2.269-3.278,6.095-3.278,11.473v76.909c0,5.382,1.09,9.204,3.278,11.474
		C187.612,144.24,191.395,145.375,196.777,145.375z"/>
	<path style="fill:#284B63;" d="M357.653,173.113h-26.729c-13.282,0-23.538-3.53-30.764-10.591
		c-7.229-7.061-10.842-17.23-10.842-30.512V52.075c0-13.278,3.613-23.451,10.842-30.512c7.226-7.061,17.481-10.591,30.764-10.591
		h26.729c13.112,0,23.282,3.573,30.512,10.717c7.226,7.147,10.842,17.273,10.842,30.385v7.565c0,3.7-1.765,5.548-5.295,5.548
		h-21.434c-3.529,0-5.295-1.848-5.295-5.548v-6.052c0-5.378-1.096-9.204-3.278-11.473c-2.186-2.27-5.968-3.404-11.347-3.404h-16.391
		c-5.212,0-8.952,1.134-11.22,3.404c-2.27,2.269-3.405,6.095-3.405,11.473v76.909c0,5.382,1.135,9.204,3.405,11.474
		c2.269,2.269,6.009,3.404,11.22,3.404h16.391c5.379,0,9.161-1.135,11.347-3.404c2.182-2.269,3.278-6.092,3.278-11.474v-15.886
		c0-1.848-0.926-2.774-2.774-2.774H349.08c-3.531,0-5.295-1.765-5.295-5.295V89.395c0-3.53,1.765-5.295,5.295-5.295h44.128
		c3.864,0,5.799,1.934,5.799,5.8v42.111c0,13.113-3.616,23.242-10.842,30.385C380.935,169.543,370.765,173.113,357.653,173.113z"/>
	<path style="fill:#284B63;" d="M496.594,173.113h-28.242c-13.281,0-23.538-3.53-30.764-10.591
		c-7.23-7.061-10.843-17.23-10.843-30.512V52.075c0-13.278,3.613-23.451,10.843-30.512c7.226-7.061,17.483-10.591,30.764-10.591
		h28.242c13.278,0,23.533,3.53,30.764,10.591c7.226,7.061,10.843,17.234,10.843,30.512v79.935c0,13.282-3.617,23.451-10.843,30.512
		C520.127,169.583,509.871,173.113,496.594,173.113z M473.395,145.375h17.903c5.378,0,9.203-1.135,11.473-3.404
		c2.27-2.269,3.404-6.092,3.404-11.474V53.588c0-5.378-1.134-9.204-3.404-11.473c-2.27-2.27-6.095-3.404-11.473-3.404h-17.903
		c-5.384,0-9.165,1.134-11.347,3.404c-2.188,2.269-3.278,6.095-3.278,11.473v76.909c0,5.382,1.09,9.204,3.278,11.474
		C464.23,144.24,468.012,145.375,473.395,145.375z"/>
	<path style="fill:#284B63;" d="M15.22,383.732v-151.55c0-3.529,1.766-5.294,5.297-5.294h62.284
		c13.112,0,23.324,3.573,30.637,10.716c7.314,7.147,10.969,17.272,10.969,30.385v79.935c0,13.113-3.655,23.243-10.969,30.387
		c-7.313,7.147-17.525,10.716-30.637,10.716H20.517C16.986,389.027,15.22,387.263,15.22,383.732z M50.019,361.289h27.486
		c5.379,0,9.204-1.134,11.474-3.404c2.269-2.27,3.404-6.091,3.404-11.473v-76.911c0-5.378-1.135-9.203-3.404-11.473
		c-2.27-2.27-6.095-3.404-11.474-3.404H50.019c-1.851,0-2.773,0.926-2.773,2.773v101.119
		C47.246,360.367,48.167,361.289,50.019,361.289z"/>
	<path style="fill:#284B63;" d="M237.626,226.888h21.183c3.694,0,5.547,1.681,5.547,5.043v115.994
		c0,13.113-3.656,23.243-10.969,30.387c-7.313,7.147-17.526,10.716-30.638,10.716h-27.737c-13.282,0-23.538-3.531-30.764-10.591
		c-7.23-7.061-10.843-17.23-10.843-30.512V232.182c0-3.529,1.765-5.294,5.295-5.294h21.434c3.531,0,5.295,1.765,5.295,5.294v114.23
		c0,5.382,1.135,9.203,3.404,11.473c2.27,2.27,6.009,3.404,11.222,3.404h17.399c5.379,0,9.204-1.134,11.474-3.404
		c2.269-2.27,3.404-6.091,3.404-11.473v-114.23C232.331,228.653,234.095,226.888,237.626,226.888z"/>
	<path style="fill:#284B63;" d="M346.054,389.027h-21.181c-3.7,0-5.548-1.765-5.548-5.295V257.397c0-1.847-0.924-2.773-2.772-2.773
		h-28.748c-3.529,0-5.294-1.765-5.294-5.295v-17.148c0-3.529,1.765-5.294,5.294-5.294h95.318c3.531,0,5.295,1.765,5.295,5.294
		v17.148c0,3.531-1.765,5.295-5.295,5.295h-28.746c-2.017,0-3.025,0.926-3.025,2.773v126.334
		C351.351,387.263,349.585,389.027,346.054,389.027z"/>
	<path style="fill:#284B63;" d="M474.152,389.027h-27.486c-13.282,0-23.538-3.531-30.764-10.591
		c-7.229-7.061-10.842-17.23-10.842-30.512V267.99c0-13.278,3.613-23.451,10.842-30.511c7.226-7.061,17.481-10.591,30.764-10.591
		h27.486c13.112,0,23.326,3.573,30.638,10.716c7.313,7.147,10.969,17.272,10.969,30.385v11.851c0,3.7-1.853,5.548-5.548,5.548
		H489.03c-3.531,0-5.295-1.848-5.295-5.548v-10.339c0-5.378-1.135-9.203-3.404-11.473c-2.27-2.27-6.095-3.404-11.474-3.404h-17.148
		c-5.212,0-8.952,1.134-11.22,3.404c-2.27,2.27-3.405,6.095-3.405,11.473v76.911c0,5.382,1.135,9.203,3.405,11.473
		c2.269,2.27,6.009,3.404,11.22,3.404h17.148c5.379,0,9.204-1.134,11.474-3.404c2.269-2.27,3.404-6.091,3.404-11.473v-10.339
		c0-3.695,1.765-5.548,5.295-5.548h21.181c3.695,0,5.548,1.853,5.548,5.548v11.851c0,13.113-3.656,23.243-10.969,30.387
		C497.477,385.458,487.264,389.027,474.152,389.027z"/>
	<path style="fill:#284B63;" d="M569.972,389.027h-21.435c-3.529,0-5.294-1.765-5.294-5.295v-151.55
		c0-3.529,1.765-5.294,5.294-5.294h21.435c3.529,0,5.294,1.765,5.294,5.294v59.259c0,1.851,1.009,2.774,3.027,2.774h42.616
		c1.847,0,2.773-0.923,2.773-2.774v-59.259c0-3.529,1.765-5.294,5.297-5.294h21.432c3.531,0,5.297,1.765,5.297,5.294v151.55
		c0,3.531-1.766,5.295-5.297,5.295h-21.432c-3.532,0-5.297-1.765-5.297-5.295v-59.006c0-1.848-0.926-2.774-2.773-2.774h-42.616
		c-2.017,0-3.027,0.926-3.027,2.774v59.006C575.266,387.263,573.501,389.027,569.972,389.027z"/>
	<path style="fill:#284B63;" d="M703.363,389.027h-19.417c-4.035,0-5.383-1.765-4.035-5.295
		c5.378-13.782,14.96-38.999,28.745-75.649c13.782-36.647,23.364-61.946,28.748-75.901c1.512-3.529,3.78-5.294,6.807-5.294h19.417
		c4.035,0,5.378,1.765,4.035,5.294l-57.493,151.55C708.823,387.263,706.555,389.027,703.363,389.027z"/>
	<path style="fill:#284B63;" d="M806.496,389.027H787.08c-4.035,0-5.383-1.765-4.035-5.295c5.378-13.782,14.96-38.999,28.745-75.649
		c13.785-36.647,23.364-61.946,28.748-75.901c1.513-3.529,3.783-5.294,6.807-5.294h19.417c4.035,0,5.38,1.765,4.035,5.294
		l-57.493,151.55C811.958,387.263,809.688,389.027,806.496,389.027z"/>
</g>
</svg>
