<?xml version="1.0" encoding="iso-8859-1"?>
<!-- Generator: Adobe Illustrator 21.0.0, SVG Export Plug-In . SVG Version: 6.00 Build 0)  -->
<svg version="1.1" id="&#x5716;&#x5C64;_1" xmlns="http://www.w3.org/2000/svg" xmlns:xlink="http://www.w3.org/1999/xlink" x="0px"
	 y="0px" viewBox="0 0 160 238" style="enable-background:new 0 0 160 238;" xml:space="preserve">
<g>
	<path style="fill:#284B63;" d="M96.847,223.022H62.565c-17.034,0-30.189-4.527-39.457-13.583
		C13.834,200.383,9.2,187.339,9.2,170.305V67.781c0-17.03,4.634-30.078,13.907-39.134c9.268-9.056,22.423-13.583,39.457-13.583
		h34.282c16.819,0,29.861,4.583,39.133,13.745c9.268,9.166,13.909,22.154,13.909,38.972v9.702c0,4.745-2.265,7.116-6.794,7.116
		h-27.489c-4.53,0-6.794-2.371-6.794-7.116v-7.762c0-6.898-1.404-11.804-4.204-14.715c-2.804-2.912-7.657-4.366-14.554-4.366H69.034
		c-6.686,0-11.481,1.455-14.393,4.366c-2.912,2.911-4.365,7.817-4.365,14.715v98.643c0,6.903,1.454,11.805,4.365,14.716
		c2.912,2.911,7.707,4.366,14.393,4.366h21.021c6.897,0,11.75-1.456,14.554-4.366c2.8-2.911,4.204-7.813,4.204-14.716v-20.375
		c0-2.371-1.187-3.558-3.556-3.558H85.851c-4.528,0-6.792-2.264-6.792-6.792v-21.993c0-4.527,2.263-6.792,6.792-6.792h56.598
		c4.958,0,7.44,2.481,7.44,7.439v54.011c0,16.818-4.642,29.81-13.909,38.972C126.708,218.444,113.666,223.022,96.847,223.022z"/>
	<path style="fill:#FFFFFF;" d="M96.847,15.064c16.819,0,29.861,4.583,39.133,13.745c9.268,9.166,13.909,22.154,13.909,38.972v9.702
		c0,4.745-2.265,7.116-6.794,7.116h-27.489c-4.53,0-6.794-2.371-6.794-7.116v-7.762c0-6.898-1.404-11.804-4.204-14.715
		c-2.804-2.912-7.657-4.366-14.554-4.366H69.034c-6.686,0-11.481,1.455-14.393,4.366c-2.911,2.911-4.365,7.817-4.365,14.715v98.643
		c0,6.903,1.454,11.805,4.365,14.716c2.912,2.911,7.707,4.366,14.393,4.366h21.021c6.897,0,11.75-1.456,14.554-4.366
		c2.8-2.911,4.204-7.813,4.204-14.716v-20.375c0-2.371-1.187-3.558-3.556-3.558H85.851c-4.528,0-6.792-2.264-6.792-6.792v-21.993
		c0-4.527,2.263-6.792,6.792-6.792h56.598c4.958,0,7.44,2.481,7.44,7.439v54.011c0,16.818-4.642,29.81-13.909,38.972
		c-9.272,9.167-22.314,13.745-39.133,13.745H62.565c-17.034,0-30.189-4.527-39.457-13.583C13.834,200.383,9.2,187.339,9.2,170.305
		V67.781c0-17.03,4.634-30.078,13.907-39.134c9.268-9.056,22.423-13.583,39.457-13.583H96.847 M96.847,6.086H62.565
		c-19.385,0-34.771,5.43-45.732,16.14C5.812,32.988,0.222,48.316,0.222,67.781v102.524c0,19.465,5.589,34.793,16.613,45.557
		C27.793,226.57,43.18,232,62.565,232h34.282c19.19,0,34.48-5.497,45.445-16.339c10.998-10.873,16.575-26.133,16.575-45.356v-54.011
		c0-9.973-6.444-16.417-16.418-16.417H85.851c-9.432,0-15.77,6.337-15.77,15.77v21.993c0,9.432,6.337,15.77,15.77,15.77h13.984
		v14.955c0,6.54-1.522,8.311-1.696,8.491c-0.575,0.596-2.929,1.613-8.084,1.613H69.034c-4.65,0-7.205-0.898-8.045-1.738
		c-0.8-0.8-1.735-3.471-1.735-8.366V69.721c0-4.895,0.934-7.565,1.735-8.365c0.841-0.841,3.395-1.738,8.045-1.738h21.021
		c5.155,0,7.509,1.016,8.087,1.616c0.17,0.177,1.693,1.948,1.693,8.487v7.762c0,9.626,6.338,16.094,15.772,16.094h27.489
		c9.433,0,15.772-6.468,15.772-16.094v-9.702c0-19.218-5.576-34.478-16.574-45.355C131.321,11.582,116.031,6.086,96.847,6.086
		L96.847,6.086z"/>
</g>
</svg>
